# xmcd
#
# Track frame offsets:
#	150
#	34049
#	75391
#	107916
#	141721
#	172350
#	209671
#	241672
# Disc length: 3619 seconds
# Revision: 1
# Processed by: cddbd v1.5.1PL2 Copyright (c) Steve Scherf et al.
#
# Submitted via: libkcddb 0.21
#
DISCID=730e2108
DTITLE=Plinio Oliveira - Illuminati
DYEAR=1900
DGENRE=New Age
TTITLE0=A Origem
TTITLE1=Nut e Gueb
TTITLE2=O Rio Nilo
TTITLE3=O Egito
TTITLE4=Akhenaton
TTITLE5=Tothmea
TTITLE6=O Julgamento do Faraó
TTITLE7=Illuminati
EXTD=
EXTT0=
EXTT1=
EXTT2=
EXTT3=
EXTT4=
EXTT5=
EXTT6=
EXTT7=
PLAYORDER=
